<?xml version="1.0" encoding="UTF-8" standalone="no"?>
<!-- Created with Inkscape (http://www.inkscape.org/) -->

<svg
   xmlns:dc="http://purl.org/dc/elements/1.1/"
   xmlns:cc="http://creativecommons.org/ns#"
   xmlns:rdf="http://www.w3.org/1999/02/22-rdf-syntax-ns#"
   xmlns:svg="http://www.w3.org/2000/svg"
   xmlns="http://www.w3.org/2000/svg"
   xmlns:sodipodi="http://sodipodi.sourceforge.net/DTD/sodipodi-0.dtd"
   xmlns:inkscape="http://www.inkscape.org/namespaces/inkscape"
   width="290.91379"
   height="212.62697"
   id="svg2"
   version="1.1"
   inkscape:version="0.48.3.1 r9886"
   sodipodi:docname="New document 1">
  <defs
     id="defs4" />
  <sodipodi:namedview
     id="base"
     pagecolor="#ffffff"
     bordercolor="#666666"
     borderopacity="1.0"
     inkscape:pageopacity="0.0"
     inkscape:pageshadow="2"
     inkscape:zoom="1.979899"
     inkscape:cx="126.89834"
     inkscape:cy="125.99046"
     inkscape:document-units="px"
     inkscape:current-layer="layer1"
     showgrid="false"
     showguides="true"
     fit-margin-top="0"
     fit-margin-left="0"
     fit-margin-right="0"
     fit-margin-bottom="0"
     inkscape:window-width="1024"
     inkscape:window-height="750"
     inkscape:window-x="0"
     inkscape:window-y="18"
     inkscape:window-maximized="0">
    <inkscape:grid
       type="xygrid"
       id="grid2985"
       units="pt"
       empspacing="5"
       visible="true"
       enabled="true"
       snapvisiblegridlinesonly="true"
       originx="-39.19798pt"
       originy="18.986814pt" />
  </sodipodi:namedview>
  <metadata
     id="metadata7">
    <rdf:RDF>
      <cc:Work
         rdf:about="">
        <dc:format>image/svg+xml</dc:format>
        <dc:type
           rdf:resource="http://purl.org/dc/dcmitype/StillImage" />
        <dc:title></dc:title>
      </cc:Work>
    </rdf:RDF>
  </metadata>
  <g
     inkscape:label="Layer 1"
     inkscape:groupmode="layer"
     id="layer1"
     transform="translate(-48.997475,-863.46873)">
    <path
       style="fill:none;stroke:#000000;stroke-width:1px;stroke-linecap:butt;stroke-linejoin:miter;stroke-opacity:1"
       d="m 58.083771,963.97383 3.030458,-20.70812 -1.515229,-43.94164 -4.04061,-15.15229 -3.535534,-1.01015 -0.505076,6.56599 2.020305,30.80966 4.545686,27.27411 4.040611,15.15229 0.505076,-16.16244 4.545686,-12.12183 6.565992,-5.05076 12.626907,1.01015 4.04061,3.53553 4.04061,9.09138 0.505076,12.12183 -2.020305,12.12183 -3.535534,8.08122"
       id="path2987"
       inkscape:connector-curvature="0" />
    <path
       style="fill:none;stroke:#000000;stroke-width:1px;stroke-linecap:butt;stroke-linejoin:miter;stroke-opacity:1"
       d="m 110.6117,951.34693 35.35534,-4.54569 -3.03045,-14.14213 -10.10153,-10.60661 -13.13198,-3.53553 -10.10153,3.53553 -4.04061,10.10153 -2.52538,13.63706 2.0203,10.10152 9.09138,8.5863 14.64721,2.02031 11.11168,-7.07107"
       id="path2989"
       inkscape:connector-curvature="0" />
    <path
       style="fill:none;stroke:#000000;stroke-width:1px;stroke-linecap:butt;stroke-linejoin:miter;stroke-opacity:1"
       d="m 166.67517,968.51952 -5.05076,-23.23351 -2.02031,-38.89087 2.02031,-20.70813 4.54568,-10.10152 1.01016,3.03045 1.01015,12.62691 -0.50508,29.29443 -1.51523,24.24366 -5.05076,13.63706 -6.06091,8.58629"
       id="path2991"
       inkscape:connector-curvature="0" />
    <path
       style="fill:none;stroke:#000000;stroke-width:1px;stroke-linecap:butt;stroke-linejoin:miter;stroke-opacity:1"
       d="m 192.93914,969.52967 -7.57615,-23.73858 -2.0203,-32.82996 0,-26.26396 1.51523,-16.66752 4.54568,-6.06092 1.01015,12.62691 -1.01015,36.87057 -1.51523,26.76904 -2.0203,15.65736 -4.04061,9.09138 -4.04061,5.05076"
       id="path2993"
       inkscape:connector-curvature="0" />
    <path
       style="fill:none;stroke:#000000;stroke-width:1px;stroke-linecap:butt;stroke-linejoin:miter;stroke-opacity:1"
       d="m 209.10158,964.98399 8.58629,6.56599 13.63706,-1.01015 10.6066,-7.57615 5.55584,-18.18274 -4.04061,-17.67767 -16.66751,-11.11168 -15.65737,-1.51523 -8.08122,9.09137 -4.54568,14.64721 2.52538,17.67767 4.54568,8.5863 8.08122,5.05076 10.60661,-1.01015 9.09137,-4.04061"
       id="path2995"
       inkscape:connector-curvature="0" />
    <path
       style="fill:none;stroke:#000000;stroke-width:1px;stroke-linecap:butt;stroke-linejoin:miter;stroke-opacity:1"
       d="m 51.51778,1018.5221 -2.020305,11.1117 1.010152,18.1827 5.050763,16.1624 7.071068,9.5965 5.555839,-1.0102 6.060915,-11.6167 4.04061,-16.1625 0.505077,-16.1624 -3.535534,-4.0406 -6.060916,4.5457 3.535534,12.6269 5.050763,15.6573 9.596449,14.6473 11.111678,3.5355 c 0,0 4.040607,-4.0406 6.060917,-5.5558 2.0203,-1.5153 7.07107,-17.6777 7.07107,-17.6777 l -2.02031,-21.2132 -8.5863,-23.2335"
       id="path2997"
       inkscape:connector-curvature="0" />
    <path
       style="fill:none;stroke:#000000;stroke-width:1px;stroke-linecap:butt;stroke-linejoin:miter;stroke-opacity:1"
       d="m 140.4112,1022.0576 -13.63706,8.5863 -2.0203,17.1726 c 0,0 4.54569,21.7183 7.07107,21.7183 2.52538,0 9.59645,1.0101 14.64721,1.0101 5.05076,0 16.16244,-3.5355 16.16244,-3.5355 l 11.11168,-15.1523 -1.51523,-17.1726 -17.17259,-18.6878 -15.15229,-1.0102 -7.07107,7.5762 -4.54569,12.1218"
       id="path2999"
       inkscape:connector-curvature="0" />
    <path
       style="fill:none;stroke:#000000;stroke-width:1px;stroke-linecap:butt;stroke-linejoin:miter;stroke-opacity:1"
       d="m 180.31223,1016.5018 5.05076,4.0406 4.54569,20.7081 -0.50508,17.6777 -4.04061,14.1421 -3.03046,-1.0101 -2.52538,-8.0813 3.53554,-13.637 3.03045,-15.1523 6.06092,-18.6878 7.57614,-5.0508 12.12183,2.0203 5.55584,8.0812 1.01016,14.1422 -2.02031,5.0507"
       id="path3001"
       inkscape:connector-curvature="0" />
    <path
       style="fill:none;stroke:#000000;stroke-width:1px;stroke-linecap:butt;stroke-linejoin:miter;stroke-opacity:1"
       d="m 243.95184,1064.9891 -5.05076,-17.6777 -1.01016,-15.1523 0.50508,-33.335 3.03046,-18.68782 8.08122,-4.04061 c 0,0 0.50508,10.6066 0.50508,12.6269 0,2.02031 -3.53554,29.29443 -3.53554,29.29443 l -4.04061,22.2234 -4.04061,15.1522 -5.55584,11.1117 -7.07107,8.0812"
       id="path3003"
       inkscape:connector-curvature="0" />
    <path
       style="fill:none;stroke:#000000;stroke-width:1px;stroke-linecap:butt;stroke-linejoin:miter;stroke-opacity:1"
       d="m 302.54069,1070.0399 -8.08122,-17.6777 c 0,0 -4.04061,-16.6675 -3.53554,-19.698 0.50508,-3.0304 0.50508,-52.02285 0.50508,-52.02285 l 8.08122,-16.16244 1.51523,7.07107 -2.02031,21.71828 -3.03045,22.22334 -2.52539,25.2538 -3.03045,14.1422 -5.55584,10.6066 -13.13199,7.071 -17.17259,-5.5558 -5.05076,-15.1523 0,-15.1523 6.06091,-9.0914 c 0,0 13.13199,-9.0913 15.15229,-9.0913 2.02031,0 11.11168,4.5457 11.11168,4.5457 l 7.07107,8.5863 1.51523,11.6167"
       id="path3005"
       inkscape:connector-curvature="0" />
    <path
       style="fill:none;stroke:#000000;stroke-width:1px;stroke-linecap:butt;stroke-linejoin:miter;stroke-opacity:1"
       d="m 326.27927,1047.3114 -5.05076,7.5762 2.0203,5.0507 14.64722,1.5153 -3.53554,-9.0914 -7.57614,-2.0203 -4.04061,8.5863 1.01015,8.5863 8.5863,-3.0305 7.07107,-11.6167 -5.05077,-3.5356 -6.06091,7.0711"
       id="path3007"
       inkscape:connector-curvature="0" />
    <path
       style="fill:none;stroke:#000000;stroke-width:1px;stroke-linecap:butt;stroke-linejoin:miter;stroke-opacity:1"
       d="m 329.30973,1034.6845 -3.03046,-20.7081 -2.52538,-24.24368 0,-17.67766 2.52538,-6.06092 2.02031,1.01015 3.03046,8.08122 0,11.11168 -1.01016,20.70811 -4.04061,18.1828 -1.01015,6.566"
       id="path3009"
       inkscape:connector-curvature="0" />
  </g>
</svg>
